<svg width="600" height="420" viewBox="0 0 600 420" fill="none" xmlns="http://www.w3.org/2000/svg">
  <defs>
    <linearGradient id="grad-a" x1="80" y1="40" x2="520" y2="360" gradientUnits="userSpaceOnUse">
      <stop offset="0" stop-color="#6E8BFF" stop-opacity="0.9"/>
      <stop offset="1" stop-color="#10141D" stop-opacity="0"/>
    </linearGradient>
    <linearGradient id="grad-b" x1="120" y1="180" x2="480" y2="300" gradientUnits="userSpaceOnUse">
      <stop offset="0" stop-color="#4BD5C3" stop-opacity="0.9"/>
      <stop offset="1" stop-color="#2F3B4F" stop-opacity="0"/>
    </linearGradient>
    <radialGradient id="halo" cx="0" cy="0" r="1" gradientUnits="userSpaceOnUse" gradientTransform="translate(420 140) scale(120)">
      <stop stop-color="#6E8BFF" stop-opacity="0.6"/>
      <stop offset="1" stop-color="#0E1219" stop-opacity="0"/>
    </radialGradient>
  </defs>
  <rect width="600" height="420" rx="28" fill="url(#grad-a)"/>
  <rect x="32" y="32" width="536" height="356" rx="26" fill="url(#grad-b)" opacity="0.65"/>
  <circle cx="420" cy="140" r="120" fill="url(#halo)" opacity="0.6"/>
  <g opacity="0.32">
    <path d="M60 320C110 260 150 260 204 224C260 186 320 112 404 140C456 158 478 204 520 212" stroke="#6E8BFF" stroke-width="4" stroke-linecap="round" stroke-linejoin="round"/>
    <path d="M60 260C102 210 168 206 224 242C274 274 312 316 372 312C418 310 450 282 520 260" stroke="#4BD5C3" stroke-width="4" stroke-linecap="round" stroke-linejoin="round"/>
    <path d="M60 212C124 182 162 150 220 150C296 150 310 216 366 230C408 240 470 220 520 192" stroke="#A0B4FF" stroke-width="2" stroke-dasharray="10 8" stroke-linecap="round"/>
  </g>
  <g opacity="0.8">
    <circle cx="120" cy="284" r="12" fill="#4BD5C3"/>
    <circle cx="204" cy="224" r="10" fill="#6E8BFF"/>
    <circle cx="260" cy="186" r="8" fill="#A0B4FF"/>
    <circle cx="320" cy="112" r="10" fill="#4BD5C3"/>
    <circle cx="404" cy="140" r="11" fill="#6E8BFF"/>
    <circle cx="372" cy="312" r="12" fill="#6E8BFF"/>
    <circle cx="450" cy="282" r="11" fill="#4BD5C3"/>
    <circle cx="520" cy="260" r="10" fill="#A0B4FF"/>
    <circle cx="520" cy="212" r="12" fill="#6E8BFF"/>
  </g>
  <g opacity="0.45" stroke="#6E8BFF" stroke-width="1.2" stroke-dasharray="6 6">
    <path d="M120 284L204 224"/>
    <path d="M204 224L260 186"/>
    <path d="M260 186L320 112"/>
    <path d="M320 112L404 140"/>
    <path d="M404 140L450 282"/>
    <path d="M372 312L450 282"/>
    <path d="M450 282L520 260"/>
  </g>
  <g opacity="0.75">
    <rect x="92" y="80" width="148" height="96" rx="16" fill="rgba(17,23,33,0.72)" stroke="rgba(110,139,255,0.45)" stroke-width="1.4"/>
    <polyline points="116,148 140,124 168,140 200,108" fill="none" stroke="#4BD5C3" stroke-width="3" stroke-linecap="round" stroke-linejoin="round"/>
    <circle cx="116" cy="148" r="4" fill="#4BD5C3"/>
    <circle cx="200" cy="108" r="4" fill="#6E8BFF"/>
    <text x="116" y="118" fill="#6E8BFF" font-family="Inter, sans-serif" font-size="12" opacity="0.75">Signals</text>
    <text x="116" y="164" fill="#A9B1BD" font-family="Inter, sans-serif" font-size="11" opacity="0.7">+38% conversion</text>
  </g>
  <g opacity="0.65">
    <rect x="360" y="248" width="164" height="102" rx="18" fill="rgba(17,23,33,0.78)" stroke="rgba(75,213,195,0.45)" stroke-width="1.2"/>
    <text x="384" y="284" fill="#4BD5C3" font-family="Inter, sans-serif" font-size="13">Attribution</text>
    <text x="384" y="304" fill="#A9B1BD" font-family="Inter, sans-serif" font-size="11" opacity="0.7">ROMI ↑ 18%</text>
    <line x1="384" y1="312" x2="500" y2="312" stroke="#6E8BFF" stroke-width="3" stroke-linecap="round"/>
    <line x1="384" y1="322" x2="460" y2="322" stroke="#4BD5C3" stroke-width="3" stroke-linecap="round" opacity="0.6"/>
  </g>
</svg>
