<svg width="480" height="280" viewBox="0 0 480 280" fill="none" xmlns="http://www.w3.org/2000/svg">
  <rect x="0.5" y="0.5" width="479" height="279" rx="24" fill="#141A25" stroke="rgba(75,213,195,0.3)"/>
  <g opacity="0.18" stroke="#FFFFFF">
    <line x1="60" y1="60" x2="60" y2="220"/>
    <line x1="120" y1="60" x2="120" y2="220"/>
    <line x1="180" y1="60" x2="180" y2="220"/>
    <line x1="240" y1="60" x2="240" y2="220"/>
    <line x1="300" y1="60" x2="300" y2="220"/>
    <line x1="360" y1="60" x2="360" y2="220"/>
    <line x1="420" y1="60" x2="420" y2="220"/>
    <line x1="60" y1="100" x2="420" y2="100"/>
    <line x1="60" y1="140" x2="420" y2="140"/>
    <line x1="60" y1="180" x2="420" y2="180"/>
    <line x1="60" y1="220" x2="420" y2="220"/>
  </g>
  <g opacity="0.75">
    <path d="M80 210L130 190L180 202L230 170L280 142L340 118L400 110L440 126" stroke="#6E8BFF" stroke-width="3.8" stroke-linecap="round" stroke-linejoin="round"/>
    <path d="M80 200L130 180L180 160L230 140L280 130L340 122L400 100L440 80" stroke="#4BD5C3" stroke-width="3.4" stroke-linecap="round" stroke-linejoin="round" opacity="0.9"/>
    <path d="M80 220H440" stroke="#262E3C" stroke-width="6" stroke-linecap="round"/>
    <path d="M110 220H220" stroke="#6E8BFF" stroke-width="6" stroke-linecap="round"/>
    <path d="M250 220H360" stroke="#4BD5C3" stroke-width="6" stroke-linecap="round" opacity="0.8"/>
  </g>
  <circle cx="230" cy="170" r="9" fill="#6E8BFF"/>
  <circle cx="340" cy="118" r="9" fill="#6E8BFF"/>
  <circle cx="280" cy="130" r="9" fill="#4BD5C3"/>
  <circle cx="400" cy="100" r="9" fill="#4BD5C3"/>
</svg>
