<svg width="480" height="280" viewBox="0 0 480 280" fill="none" xmlns="http://www.w3.org/2000/svg">
  <rect x="0.5" y="0.5" width="479" height="279" rx="24" fill="#111722" stroke="rgba(160,180,255,0.25)"/>
  <g opacity="0.2" stroke="#FFFFFF">
    <line x1="80" y1="70" x2="80" y2="220"/>
    <line x1="150" y1="70" x2="150" y2="220"/>
    <line x1="220" y1="70" x2="220" y2="220"/>
    <line x1="290" y1="70" x2="290" y2="220"/>
    <line x1="360" y1="70" x2="360" y2="220"/>
    <line x1="430" y1="70" x2="430" y2="220"/>
    <line x1="60" y1="200" x2="440" y2="200"/>
    <line x1="60" y1="160" x2="440" y2="160"/>
    <line x1="60" y1="120" x2="440" y2="120"/>
    <line x1="60" y1="80" x2="440" y2="80"/>
  </g>
  <g>
    <path d="M90 198L150 170L210 150L270 128L330 110L390 96L440 88" stroke="#6E8BFF" stroke-width="4" stroke-linecap="round" stroke-linejoin="round"/>
    <path d="M90 214L150 206L210 198L270 190L330 178L390 164L440 156" stroke="#4BD5C3" stroke-width="4" stroke-linecap="round" stroke-linejoin="round" opacity="0.6"/>
    <path d="M90 220L150 220L150 170L90 170Z" fill="rgba(110,139,255,0.24)" stroke="#6E8BFF" stroke-width="1.6"/>
    <path d="M210 220L270 220L270 150L210 150Z" fill="rgba(75,213,195,0.18)" stroke="#4BD5C3" stroke-width="1.6"/>
    <path d="M330 220L390 220L390 110L330 110Z" fill="rgba(110,139,255,0.2)" stroke="#6E8BFF" stroke-width="1.6"/>
  </g>
  <circle cx="270" cy="128" r="10" fill="#6E8BFF"/>
  <circle cx="330" cy="110" r="9" fill="#6E8BFF"/>
  <circle cx="390" cy="96" r="9" fill="#6E8BFF"/>
  <circle cx="270" cy="190" r="8" fill="#4BD5C3"/>
  <circle cx="390" cy="164" r="8" fill="#4BD5C3"/>
</svg>
