<svg width="480" height="280" viewBox="0 0 480 280" fill="none" xmlns="http://www.w3.org/2000/svg">
  <defs>
    <linearGradient id="retail-grad" x1="40" y1="40" x2="420" y2="240" gradientUnits="userSpaceOnUse">
      <stop offset="0" stop-color="#10141D"/>
      <stop offset="1" stop-color="#1C2534"/>
    </linearGradient>
  </defs>
  <rect x="0.5" y="0.5" width="479" height="279" rx="24" fill="url(#retail-grad)" stroke="rgba(110,139,255,0.25)"/>
  <g opacity="0.4">
    <path d="M80 220L160 168L220 188L300 130L380 96L420 120" stroke="#6E8BFF" stroke-width="4" stroke-linecap="round" stroke-linejoin="round"/>
    <path d="M80 204L160 200L220 180L300 160L380 150L420 134" stroke="#4BD5C3" stroke-width="4" stroke-linecap="round" stroke-linejoin="round"/>
  </g>
  <g opacity="0.15" stroke="#FFFFFF">
    <line x1="80" y1="60" x2="80" y2="220"/>
    <line x1="160" y1="60" x2="160" y2="220"/>
    <line x1="240" y1="60" x2="240" y2="220"/>
    <line x1="320" y1="60" x2="320" y2="220"/>
    <line x1="400" y1="60" x2="400" y2="220"/>
    <line x1="60" y1="220" x2="420" y2="220"/>
    <line x1="60" y1="180" x2="420" y2="180"/>
    <line x1="60" y1="140" x2="420" y2="140"/>
    <line x1="60" y1="100" x2="420" y2="100"/>
  </g>
  <circle cx="160" cy="168" r="10" fill="#6E8BFF"/>
  <circle cx="300" cy="130" r="10" fill="#6E8BFF"/>
  <circle cx="220" cy="188" r="8" fill="#4BD5C3"/>
  <circle cx="380" cy="96" r="8" fill="#4BD5C3"/>
</svg>
